<svg id="coffee" xmlns="http://www.w3.org/2000/svg" width="87.525" height="87.525" viewBox="0 0 87.525 87.525">
  <g id="Group_223" data-name="Group 223" transform="translate(5.128 30.942)">
    <g id="Group_222" data-name="Group 222">
      <path id="Path_183" data-name="Path 183" d="M97.012,186.128V181H30v12.821A33.606,33.606,0,0,0,45.652,222.2H81.189a34.846,34.846,0,0,0,6.468-5.128h6.79A17.971,17.971,0,0,0,112.4,199.12V186.128Zm10.257,12.992a12.836,12.836,0,0,1-12.821,12.821H91.656a33.518,33.518,0,0,0,5.355-18.12v-2.564h10.257Z" transform="translate(-30 -181)" fill="#fbc3aa"/>
    </g>
  </g>
  <g id="Group_225" data-name="Group 225" transform="translate(20.632)">
    <g id="Group_224" data-name="Group 224">
      <path id="Path_184" data-name="Path 184" d="M127.424,0l-2.845,4.267a3.6,3.6,0,0,1,0,5.99,8.728,8.728,0,0,0,0,14.524l2.845-4.267a3.6,3.6,0,0,1,0-5.99,8.728,8.728,0,0,0,0-14.524Z" transform="translate(-120.693)" fill="#fbc3aa"/>
    </g>
  </g>
  <g id="Group_227" data-name="Group 227" transform="translate(33.453)">
    <g id="Group_226" data-name="Group 226">
      <path id="Path_185" data-name="Path 185" d="M202.424,0l-2.845,4.267a3.6,3.6,0,0,1,0,5.99,8.728,8.728,0,0,0,0,14.524l2.845-4.267a3.6,3.6,0,0,1,0-5.99,8.728,8.728,0,0,0,0-14.524Z" transform="translate(-195.693)" fill="#fbc3aa"/>
    </g>
  </g>
  <g id="Group_229" data-name="Group 229" transform="translate(46.274)">
    <g id="Group_228" data-name="Group 228">
      <path id="Path_186" data-name="Path 186" d="M277.424,0l-2.845,4.267a3.6,3.6,0,0,1,0,5.99,8.728,8.728,0,0,0,0,14.524l2.845-4.267a3.6,3.6,0,0,1,0-5.99,8.728,8.728,0,0,0,0-14.524Z" transform="translate(-270.693)" fill="#fbc3aa"/>
    </g>
  </g>
  <g id="Group_231" data-name="Group 231" transform="translate(0 77.268)">
    <g id="Group_230" data-name="Group 230">
      <path id="Path_187" data-name="Path 187" d="M0,452a10.257,10.257,0,0,0,10.257,10.257H67.012A10.257,10.257,0,0,0,77.268,452Z" transform="translate(0 -452)" fill="#fbc3aa"/>
    </g>
  </g>
</svg>
