<svg xmlns="http://www.w3.org/2000/svg" width="41.093" height="38.047" viewBox="0 0 41.093 38.047">
  <path id="contact-us" d="M32.111,41.2H56.578L42.046,51.167,32.161,44.39a4.353,4.353,0,0,0-.05-3.186Zm-6.4,5.782,3.566-2.171a2.285,2.285,0,0,0,.79-3.092l-3.22-5.577a2.284,2.284,0,0,0-3.273-.739L17.7,39.45c-2.795,9.848,9.765,31.168,19.4,33.6l6.437-3.064a2.284,2.284,0,0,0,1-3.2L41.315,61.2a2.285,2.285,0,0,0-3.073-.862l-3.664,2c-3.623-3.222-7.887-10.608-8.867-15.357Zm32.643-4.5L42.627,53.268a1.031,1.031,0,0,1-1.183-.014L31,46.1a4.348,4.348,0,0,1-.65.484L28.1,47.953a35.5,35.5,0,0,0,6.837,11.842l2.317-1.267A4.354,4.354,0,0,1,43.1,60.17l2,3.458h11.63a1.674,1.674,0,0,0,1.67-1.67V42.874a1.657,1.657,0,0,0-.046-.388Z" transform="translate(-17.308 -35)" fill="#fbc3aa" fill-rule="evenodd"/>
</svg>
