<svg xmlns="http://www.w3.org/2000/svg" width="105.5" height="75.049" viewBox="0 0 105.5 75.049">
  <g id="friendship" transform="translate(0 -73.887)">
    <path id="Path_188" data-name="Path 188" d="M240.984,73.887h6.182V85.436h-6.182Z" transform="translate(-191.325)" fill="#f8e179"/>
    <path id="Path_189" data-name="Path 189" d="M0,0H6.182V7.647H0Z" transform="matrix(0.899, -0.437, 0.437, 0.899, 35.481, 82.535)" fill="#f8e179"/>
    <path id="Path_190" data-name="Path 190" d="M0,0H7.647V6.182H0Z" transform="matrix(0.437, -0.899, 0.899, 0.437, 61.076, 86.726)" fill="#f8e179"/>
    <path id="Path_191" data-name="Path 191" d="M103.307,184.141a27.9,27.9,0,0,0-50.549-1.9A27.918,27.918,0,0,0,17.4,169.127,27.917,27.917,0,1,0,52.75,207.742a27.918,27.918,0,0,0,50.557-23.6Zm-67.871.2,5.7,2.4-2.84,6.736-5.7-2.4ZM24.59,179.771l5.7,2.4-2.84,6.736-5.7-2.4Zm3.307,29.79a14.575,14.575,0,0,1-13.411-20.238l5.7,2.4a8.394,8.394,0,1,0,15.468,6.522l5.7,2.4A14.6,14.6,0,0,1,27.9,209.562Zm53.012-29.79,2.84,6.736-5.7,2.4-2.84-6.736Zm-10.846,4.573,2.84,6.736-5.7,2.4-2.84-6.736Zm13.182,24.073a14.576,14.576,0,0,1-19.093-7.768l5.7-2.4a8.393,8.393,0,1,0,15.468-6.522l5.7-2.4a14.592,14.592,0,0,1-7.768,19.093Z" transform="translate(0 -73.968)" fill="#f8e179"/>
  </g>
</svg>
