<svg xmlns="http://www.w3.org/2000/svg" width="145.402" height="100.616" viewBox="0 0 145.402 100.616">
  <g id="Group_233" data-name="Group 233" transform="translate(-103.534 -34.213)">
    <g id="party-hat" transform="translate(133.04 32.004) rotate(20)">
      <path id="Path_192" data-name="Path 192" d="M57.94,0a15.373,15.373,0,0,1-3.348,1.912,15.263,15.263,0,0,1-11.847-.019A15.26,15.26,0,0,1,31.806,6.444,15.261,15.261,0,0,1,20.868,1.893a15.259,15.259,0,0,1-11.847.019A15.378,15.378,0,0,1,5.672,0L0,11.588a70.806,70.806,0,0,0,31.806,7.494,70.807,70.807,0,0,0,31.807-7.494Zm0,0" transform="translate(0 67.189)" fill="#d0bbda"/>
      <path id="Path_193" data-name="Path 193" d="M23.543,13.893,16.742,0a10.1,10.1,0,0,1-4.971,1.316A10.1,10.1,0,0,1,6.8,0L0,13.893A26.517,26.517,0,0,0,23.543,13.893Zm0,0" transform="translate(20.035 23.959)" fill="#d0bbda"/>
      <path id="Path_194" data-name="Path 194" d="M3.521,22.04a10.276,10.276,0,0,0,9.248-.663l1.952-1.156,1.36,1.815a10.353,10.353,0,0,0,16.581,0l1.36-1.815,1.951,1.156A10.353,10.353,0,0,0,48,20.334l.742.866L38.365,0A31.528,31.528,0,0,1,24.372,3.273,31.532,31.532,0,0,1,10.378,0L0,21.2l.742-.866A10.354,10.354,0,0,0,3.521,22.04Zm0,0" transform="translate(7.434 42.391)" fill="#d0bbda"/>
      <path id="Path_195" data-name="Path 195" d="M9.433,20.22a5.051,5.051,0,0,0,4.378-2.528,5.054,5.054,0,0,0,4.378-7.582A5.054,5.054,0,0,0,13.81,2.528a5.054,5.054,0,0,0-8.755,0A5.054,5.054,0,0,0,.678,10.11a5.054,5.054,0,0,0,4.378,7.582A5.051,5.051,0,0,0,9.433,20.22Zm0,0" transform="translate(22.373 0)" fill="#d0bbda"/>
    </g>
    <g id="balloon" transform="matrix(0.899, -0.438, 0.438, 0.899, 168.054, 54.568)">
      <g id="Group_232" data-name="Group 232" transform="translate(0 0)">
        <path id="Path_196" data-name="Path 196" d="M46.435,23.217A23.217,23.217,0,1,0,0,23.217c0,13.095,11.255,26.357,19.667,29.6L18.381,54.1a1.788,1.788,0,0,0,1.264,3.05h2.382c5.333,12.723,2.518,15.652-1.375,19.628-2.39,2.443-5.1,5.208-6.315,10.319a1.781,1.781,0,0,0,1.322,2.15,1.662,1.662,0,0,0,.414.05,1.78,1.78,0,0,0,1.736-1.372c.993-4.147,3.232-6.437,5.4-8.648,4.876-4.983,7.74-9.33,2.686-22.128h.9a1.788,1.788,0,0,0,1.264-3.05l-1.286-1.282C35.18,49.575,46.435,36.312,46.435,23.217Zm-23.217-12.5a12.516,12.516,0,0,0-12.5,12.5,1.786,1.786,0,0,1-3.572,0A16.093,16.093,0,0,1,23.217,7.144a1.786,1.786,0,1,1,0,3.572Z" fill="#d0bbda"/>
      </g>
    </g>
  </g>
</svg>
