<svg xmlns="http://www.w3.org/2000/svg" width="51.135" height="46.379" viewBox="0 0 51.135 46.379">
  <g id="Icon" transform="translate(-1.25 -2.625)">
    <circle id="Ellipse_27" data-name="Ellipse 27" cx="4.162" cy="4.162" r="4.162" transform="translate(22.656 2.625)" fill="#fff"/>
    <circle id="Ellipse_28" data-name="Ellipse 28" cx="4.162" cy="4.162" r="4.162" transform="translate(44.061 9.76)" fill="#fff"/>
    <circle id="Ellipse_29" data-name="Ellipse 29" cx="4.162" cy="4.162" r="4.162" transform="translate(1.25 9.76)" fill="#fff"/>
    <path id="Path_210" data-name="Path 210" d="M46.714,13.894a1.783,1.783,0,0,0-2.949-1.67l-5.294,4.814a5.351,5.351,0,0,1-8.61-2.081L26.419,5.783a1.783,1.783,0,0,0-3.339,0l-3.442,9.173a5.351,5.351,0,0,1-8.61,2.081L5.735,12.224a1.783,1.783,0,0,0-2.949,1.67S5.433,27.129,6.776,33.853a6.541,6.541,0,0,0,6.415,5.259H36.309a6.541,6.541,0,0,0,6.415-5.259c1.344-6.724,3.991-19.959,3.991-19.959Z" transform="translate(2.068 2.757)" fill="#fff" fill-rule="evenodd"/>
    <path id="Path_211" data-name="Path 211" d="M35.575,20.625H7.034a1.784,1.784,0,0,0,0,3.568H35.575a1.784,1.784,0,1,0,0-3.568Z" transform="translate(5.514 24.811)" fill="#fff" fill-rule="evenodd"/>
  </g>
</svg>
