<svg xmlns="http://www.w3.org/2000/svg" width="31.871" height="55.99" viewBox="0 0 31.871 55.99">
  <g id="balloon" transform="translate(3.778) rotate(4)">
    <g id="Group_232" data-name="Group 232" transform="translate(0 0)">
      <path id="Path_196" data-name="Path 196" d="M28.162,14.081A14.081,14.081,0,1,0,0,14.081c0,7.942,6.826,15.985,11.928,17.952l-.78.778a1.084,1.084,0,0,0,.767,1.85h1.445c3.234,7.716,1.527,9.493-.834,11.9A12.516,12.516,0,0,0,8.7,52.823a1.08,1.08,0,0,0,.8,1.3,1.008,1.008,0,0,0,.251.03,1.08,1.08,0,0,0,1.053-.832,10.578,10.578,0,0,1,3.273-5.245c2.957-3.022,4.694-5.658,1.629-13.42h.544a1.084,1.084,0,0,0,.767-1.85l-.78-.778C21.336,30.066,28.162,22.022,28.162,14.081ZM14.081,6.5A7.59,7.59,0,0,0,6.5,14.081a1.083,1.083,0,0,1-2.166,0,9.76,9.76,0,0,1,9.748-9.748,1.083,1.083,0,1,1,0,2.166Z" transform="translate(0 0)" fill="#fff"/>
    </g>
  </g>
</svg>
