<svg xmlns="http://www.w3.org/2000/svg" width="56.838" height="57.89" viewBox="0 0 56.838 57.89">
  <g id="Layer_x0020_1" transform="translate(-15.25)">
    <g id="_516651912" transform="translate(15.25)">
      <path id="Path_201" data-name="Path 201" d="M513.9,29.674c-6.579,0-11.9-6.647-11.9-14.854C502,6.647,507.324,0,513.9,0s11.937,6.647,11.937,14.82C525.841,23.027,520.483,29.674,513.9,29.674ZM521.975,15.5a.68.68,0,0,1-.678-.678c0-5.63-3.323-10.242-7.393-10.242a.678.678,0,1,1,0-1.357c4.816,0,8.75,5.189,8.75,11.6A.68.68,0,0,1,521.975,15.5Z" transform="translate(-485.493)" fill="#fff" fill-rule="evenodd"/>
      <path id="Path_202" data-name="Path 202" d="M749.1,832.884h-6.172a.746.746,0,0,1-.543-.305.569.569,0,0,1-.068-.61l1.085-2.984a.668.668,0,0,1,.78-.407,8.5,8.5,0,0,0,3.7,0,.687.687,0,0,1,.78.407l1.085,2.984a.649.649,0,0,1-.068.61A.755.755,0,0,1,749.1,832.884Z" transform="translate(-717.601 -800.463)" fill="#fff" fill-rule="evenodd"/>
      <path id="Path_203" data-name="Path 203" d="M28.705,160.335c-5.63,0-11.022-4.883-12.819-11.564a16.821,16.821,0,0,1,.61-10.988,10.911,10.911,0,0,1,7.088-6.443,10.406,10.406,0,0,1,2.51-.339,11.232,11.232,0,0,1,6.206,2,18.817,18.817,0,0,0-1.9,8.377,18.487,18.487,0,0,0,2.747,9.9,14.809,14.809,0,0,0,4.07,4.273A10.238,10.238,0,0,1,31.249,160,9.031,9.031,0,0,1,28.705,160.335Zm-9.055-11.9a.723.723,0,0,1-.678-.509c-1.187-4.409-.305-10.174,3.595-12.65a6.31,6.31,0,0,1,1.831-.814.678.678,0,0,1,.848.475.708.708,0,0,1-.509.814,6.175,6.175,0,0,0-1.458.644c-3.357,2.17-4.036,7.257-2.984,11.191a.63.63,0,0,1-.475.814A.369.369,0,0,1,19.65,148.431Z" transform="translate(-15.25 -126.557)" fill="#fff" fill-rule="evenodd"/>
      <path id="Path_204" data-name="Path 204" d="M395.493,931.065a.682.682,0,0,1-.441-.136.646.646,0,0,1-.237-.576l.271-3.154a.694.694,0,0,1,.678-.61,8.605,8.605,0,0,0,1.831-.305,8.947,8.947,0,0,0,1.73-.644.645.645,0,0,1,.848.2L402,928.419a.657.657,0,0,1,.1.61.861.861,0,0,1-.475.441l-5.969,1.594Z" transform="translate(-381.936 -894.167)" fill="#fff" fill-rule="evenodd"/>
      <path id="Path_205" data-name="Path 205" d="M1051.546,160.335A9.032,9.032,0,0,1,1049,160a10.412,10.412,0,0,1-6-4.443,14.5,14.5,0,0,0,4.1-4.273,19.174,19.174,0,0,0,.814-18.279,11.424,11.424,0,0,1,6.24-2,10.407,10.407,0,0,1,2.51.339c6.376,1.73,9.8,9.53,7.7,17.431C1062.568,155.451,1057.176,160.335,1051.546,160.335Zm8.614-12.005a.307.307,0,0,1-.17-.034.658.658,0,0,1-.475-.814c1.051-3.934.339-9.055-3.018-11.191a4.675,4.675,0,0,0-1.458-.644.685.685,0,0,1-.475-.814.727.727,0,0,1,.848-.509,8.861,8.861,0,0,1,1.831.814c3.9,2.51,4.748,8.275,3.561,12.684A.653.653,0,0,1,1060.16,148.33Z" transform="translate(-1008.146 -126.557)" fill="#fff" fill-rule="evenodd"/>
      <path id="Path_206" data-name="Path 206" d="M1102.647,931.065h-.17l-5.969-1.594a.861.861,0,0,1-.475-.441.658.658,0,0,1,.1-.61l1.831-2.577a.636.636,0,0,1,.848-.2,10.756,10.756,0,0,0,1.73.678,11.36,11.36,0,0,0,1.831.271.661.661,0,0,1,.644.61l.305,3.154a.645.645,0,0,1-.237.576A.682.682,0,0,1,1102.647,931.065Z" transform="translate(-1059.348 -894.167)" fill="#fff" fill-rule="evenodd"/>
      <path id="Path_207" data-name="Path 207" d="M804.287,942.678a.644.644,0,0,1-.509-.271.659.659,0,0,1,.1-.95c6.41-5.155,4.51-8.512,2.1-12.785-1.933-3.425-4.137-7.291-1.7-12.446a.68.68,0,0,1,.916-.305.633.633,0,0,1,.305.882c-2.136,4.51-.2,7.9,1.662,11.191,2.408,4.273,4.883,8.648-2.442,14.515A.714.714,0,0,1,804.287,942.678Z" transform="translate(-776.487 -884.788)" fill="#fff" fill-rule="evenodd"/>
      <path id="Path_208" data-name="Path 208" d="M494.856,1048.047a.627.627,0,0,1-.237-.068.676.676,0,0,1-.373-.882c2.95-7.664-.136-9.462-4.036-11.768-3.188-1.865-6.817-4-7.291-9.665a.682.682,0,1,1,1.357-.136c.407,4.985,3.561,6.817,6.613,8.614,3.934,2.306,8,4.714,4.612,13.464A.7.7,0,0,1,494.856,1048.047Z" transform="translate(-467.056 -990.158)" fill="#fff" fill-rule="evenodd"/>
      <path id="Path_209" data-name="Path 209" d="M830.1,1031.9a.708.708,0,0,1-.543-.271.662.662,0,0,1,.1-.95c.407-.305.848-.678,1.323-1.051,5.189-4.07,13.837-10.886,10.276-20.077a.665.665,0,0,1,.407-.882.688.688,0,0,1,.882.373c3.9,10.14-5.6,17.635-10.717,21.671q-.712.559-1.323,1.017A.626.626,0,0,1,830.1,1031.9Z" transform="translate(-801.796 -974.414)" fill="#fff" fill-rule="evenodd"/>
    </g>
  </g>
</svg>
