<svg id="clock" xmlns="http://www.w3.org/2000/svg" width="21.913" height="21.913" viewBox="0 0 21.913 21.913">
  <g id="Group_247" data-name="Group 247" transform="translate(0 0)">
    <g id="Group_246" data-name="Group 246">
      <path id="Path_197" data-name="Path 197" d="M18.7,3.209a10.957,10.957,0,0,0-15.5,15.5,10.957,10.957,0,0,0,15.5-15.5ZM10.957,19.763a8.816,8.816,0,0,1-8.806-8.806c0-.008,0-.016,0-.024s0,0,0-.006,0-.007,0-.01a8.816,8.816,0,0,1,8.686-8.765h.12a8.806,8.806,0,1,1,0,17.612Z" transform="translate(0 0)" fill="#62534c"/>
    </g>
  </g>
  <g id="Group_249" data-name="Group 249" transform="translate(3.473 3.468)">
    <g id="Group_248" data-name="Group 248">
      <path id="Path_198" data-name="Path 198" d="M95.315,89.047a.648.648,0,1,1,0-1.3H96.1a7.522,7.522,0,0,0-6.912-6.721v.68a.648.648,0,0,1-1.3,0v-.665a7.522,7.522,0,0,0-6.741,6.8h.7a.648.648,0,1,1,0,1.3h-.705A7.521,7.521,0,0,0,87.978,96v-.822a.648.648,0,1,1,1.3,0V96a7.521,7.521,0,0,0,6.842-6.952ZM91.25,86.81l-2.166,2.166a.648.648,0,0,1-.917,0l-3.77-3.77a.648.648,0,0,1,.917-.917L88.626,87.6l1.708-1.708a.648.648,0,1,1,.917.917Z" transform="translate(-81.142 -81.029)" fill="#62534c"/>
    </g>
  </g>
</svg>
