<svg id="clock" xmlns="http://www.w3.org/2000/svg" width="40.699" height="40.699" viewBox="0 0 40.699 40.699">
  <g id="Group_262" data-name="Group 262" transform="translate(0 0)">
    <g id="Group_261" data-name="Group 261">
      <path id="Path_214" data-name="Path 214" d="M34.739,5.96A20.35,20.35,0,0,0,5.96,34.739,20.35,20.35,0,0,0,34.739,5.96ZM20.35,36.705A16.374,16.374,0,0,1,3.994,20.35c0-.015,0-.029,0-.044s0-.007,0-.011,0-.012,0-.019A16.373,16.373,0,0,1,20.127,4l.056,0,.033,0,.133,0a16.355,16.355,0,1,1,0,32.711Z" transform="translate(0 0)" fill="#f8e179"/>
    </g>
  </g>
  <g id="Group_264" data-name="Group 264" transform="translate(6.45 6.441)">
    <g id="Group_263" data-name="Group 263">
      <path id="Path_215" data-name="Path 215" d="M107.465,95.92a1.2,1.2,0,0,1,0-2.408h1.451A13.971,13.971,0,0,0,96.079,81.029v1.264a1.2,1.2,0,0,1-2.408,0V81.058a13.971,13.971,0,0,0-12.519,12.62h1.3a1.2,1.2,0,0,1,0,2.408h-1.31a13.97,13.97,0,0,0,12.7,12.746v-1.526a1.2,1.2,0,1,1,2.408,0v1.526A13.969,13.969,0,0,0,108.954,95.92Zm-7.549-4.154-4.023,4.023a1.2,1.2,0,0,1-1.7,0l-7-7a1.2,1.2,0,0,1,1.7-1.7l6.151,6.151,3.172-3.172a1.2,1.2,0,1,1,1.7,1.7Z" transform="translate(-81.142 -81.029)" fill="#f8e179"/>
    </g>
  </g>
</svg>
