<svg xmlns="http://www.w3.org/2000/svg" width="16.039" height="14.85" viewBox="0 0 16.039 14.85">
  <path id="contact-us" d="M23.085,37.421h9.549L26.963,41.31,23.1,38.665A1.7,1.7,0,0,0,23.085,37.421Zm-2.5,2.257,1.392-.848a.892.892,0,0,0,.308-1.207l-1.257-2.177a.891.891,0,0,0-1.277-.288l-2.292,1.578C16.372,40.58,21.274,48.9,25.033,49.85l2.512-1.2a.891.891,0,0,0,.389-1.25l-1.257-2.177a.892.892,0,0,0-1.2-.336l-1.43.782a13.623,13.623,0,0,1-3.461-5.994Zm12.74-1.757L27.19,42.13a.4.4,0,0,1-.462-.006L22.653,39.33a1.7,1.7,0,0,1-.254.189l-.88.536a13.858,13.858,0,0,0,2.668,4.622l.9-.494a1.7,1.7,0,0,1,2.284.641l.779,1.35h4.539a.654.654,0,0,0,.652-.652V38.073a.647.647,0,0,0-.018-.152Z" transform="translate(-17.308 -35)" fill="#fff" fill-rule="evenodd"/>
</svg>
