<svg id="Group_260" data-name="Group 260" xmlns="http://www.w3.org/2000/svg" width="42.478" height="33.804" viewBox="0 0 42.478 33.804">
  <path id="Path_212" data-name="Path 212" d="M80.874,120.939l-15.15,12.489a.358.358,0,0,1-.013.079.36.36,0,0,0-.013.079v12.647a1.711,1.711,0,0,0,1.686,1.687H77.5V137.8h6.746v10.118H94.364a1.713,1.713,0,0,0,1.687-1.687V133.586a.371.371,0,0,0-.027-.158Z" transform="translate(-59.635 -114.115)" fill="#9ddbe8"/>
  <path id="Path_213" data-name="Path 213" d="M42.184,63.461l-5.77-4.8V47.916a.812.812,0,0,0-.843-.843H30.513a.811.811,0,0,0-.843.843v5.138l-6.429-5.375a3.269,3.269,0,0,0-4,0L.292,63.461a.765.765,0,0,0-.29.566.853.853,0,0,0,.184.619L1.82,66.6a.9.9,0,0,0,.553.29.979.979,0,0,0,.633-.184L21.238,51.5,39.471,66.7a.812.812,0,0,0,.553.184H40.1a.9.9,0,0,0,.553-.29l1.634-1.949a.853.853,0,0,0,.184-.62A.768.768,0,0,0,42.184,63.461Z" transform="translate(0.001 -46.994)" fill="#9ddbe8"/>
</svg>
