<svg xmlns="http://www.w3.org/2000/svg" width="21.913" height="20.544" viewBox="0 0 21.913 20.544">
  <g id="little-kid" transform="translate(0 -0.5)">
    <circle id="Ellipse_22" data-name="Ellipse 22" cx="1.37" cy="1.37" r="1.37" transform="translate(5.935 11)" fill="#62534c"/>
    <path id="Path_199" data-name="Path 199" d="M20.344,10.053a25.9,25.9,0,0,0,.2-2.626C20.544,2.381,14.664.5,10.957.5A7.474,7.474,0,0,0,6.233,2.291,4.921,4.921,0,0,0,1.37,7.427a25.831,25.831,0,0,0,.2,2.627,2.5,2.5,0,0,0,.751,4.807,9.126,9.126,0,0,0,17.277,0,2.5,2.5,0,0,0,.749-4.808Zm-1.923,3.985s0,0,0,0v0a7.76,7.76,0,0,1-15.124-.9l.911-3.187A5.918,5.918,0,0,0,7.64,7.424c1.228,1.16,3.98,2.585,10.1,2.661l.875,3.056A7.735,7.735,0,0,1,18.421,14.038Z" fill="#62534c"/>
    <circle id="Ellipse_23" data-name="Ellipse 23" cx="1.37" cy="1.37" r="1.37" transform="translate(13.239 11)" fill="#62534c"/>
    <path id="Path_200" data-name="Path 200" d="M13.524,17.192a2.621,2.621,0,0,1-3.614,0,.685.685,0,0,0-.951.987,4.008,4.008,0,0,0,5.517,0,.685.685,0,0,0-.951-.987Z" transform="translate(-0.761 -1.435)" fill="#62534c"/>
  </g>
</svg>
