<svg id="playground" xmlns="http://www.w3.org/2000/svg" width="86.207" height="87.525" viewBox="0 0 86.207 87.525">
  <path id="Path_176" data-name="Path 176" d="M291.794,303.8H273.656a3.4,3.4,0,0,1-1.711-.436.576.576,0,0,0-.063-.034,3.429,3.429,0,0,1-1.178-1.231c-.015-.024-.029-.048-.044-.074l-11.44-19.815-.005-.005.005-.005a9.824,9.824,0,0,0-8.645-5v10.1a6.164,6.164,0,0,1-1.744,4.3,3.615,3.615,0,0,1,.674.853l11.485,19.892a.633.633,0,0,0,.048.077,9.915,9.915,0,0,0,3.59,3.6v.005a9.929,9.929,0,0,0,5.011,1.313h22.156a1.364,1.364,0,0,0,1.366-1.366V305.16a1.361,1.361,0,0,0-1.364-1.364Z" transform="translate(-206.951 -229.813)" fill="#9ddbe8"/>
  <path id="Path_177" data-name="Path 177" d="M127.482,269.76a3.256,3.256,0,0,0-6.512,0v12.119h6.513V269.76Z" transform="translate(-100.95 -220.942)" fill="#9ddbe8"/>
  <path id="Path_178" data-name="Path 178" d="M37,233.934a3.45,3.45,0,0,0,3.446,3.45h8.17V225.265a5.994,5.994,0,0,1,11.987,0v12.119h8.17a3.45,3.45,0,0,0,3.446-3.45v-21.1H37Z" transform="translate(-31.335 -176.448)" fill="#9ddbe8"/>
  <path id="Path_179" data-name="Path 179" d="M37,366.3v23.54a1.364,1.364,0,0,0,1.366,1.366h5.088a1.368,1.368,0,0,0,1.366-1.366V367.351H40.443A6.173,6.173,0,0,1,37,366.3Z" transform="translate(-31.335 -303.681)" fill="#9ddbe8"/>
  <path id="Path_180" data-name="Path 180" d="M197.27,367.351V389.84a1.368,1.368,0,0,0,1.366,1.366h5.088a1.364,1.364,0,0,0,1.366-1.366V366.3a6.169,6.169,0,0,1-3.445,1.051Z" transform="translate(-164.206 -303.681)" fill="#9ddbe8"/>
  <path id="Path_181" data-name="Path 181" d="M49.043,33.654a1.364,1.364,0,0,0,.872-2.409L38.959,22.14,28.5,13.447v-3.31l3.983-1.173,4.953-1.453a1.363,1.363,0,0,0,.015-2.621L32.485,3.438,28.5,2.261V1.376a1.366,1.366,0,0,0-2.732,0V13.447L15.312,22.14,4.452,31.163a1.368,1.368,0,0,0,.774,2.494H49.043Z" transform="translate(-3.86 -0.01)" fill="#9ddbe8"/>
  <path id="Path_182" data-name="Path 182" d="M114.192,376.09h-6.513v-3.64H104.94v22.489a1.368,1.368,0,0,0,2.737,0v-7.375h6.513v7.375a1.368,1.368,0,0,0,2.737,0V372.45h-2.739v3.64Zm0,8.741h-6.513v-6.009h6.513Z" transform="translate(-87.66 -308.78)" fill="#9ddbe8"/>
</svg>
